<?xml version="1.0" standalone="no"?>
<!DOCTYPE svg PUBLIC "-//W3C//DTD SVG 20010904//EN"
 "http://www.w3.org/TR/2001/REC-SVG-20010904/DTD/svg10.dtd">
<svg version="1.0" xmlns="http://www.w3.org/2000/svg"
 width="1024.000000pt" height="1024.000000pt" viewBox="0 0 1024.000000 1024.000000"
 preserveAspectRatio="xMidYMid meet">

<g transform="translate(0.000000,1024.000000) scale(0.100000,-0.100000)"
fill="#000000" stroke="none">
<path d="M0 5120 l0 -5120 5120 0 5120 0 0 5120 0 5120 -5120 0 -5120 0 0
-5120z m3125 2270 c122 -13 229 -42 330 -89 46 -22 369 -205 717 -407 347
-202 659 -379 692 -394 96 -43 189 -62 301 -62 136 1 225 26 404 113 530 258
1732 839 1736 839 3 0 6 -211 7 -469 l3 -469 485 469 c267 257 488 468 493
469 4 0 6 -818 5 -1817 l-3 -1818 -27 -100 c-66 -238 -209 -453 -397 -596 -85
-65 -265 -153 -364 -178 -246 -63 -508 -42 -721 57 -46 22 -368 205 -716 407
-347 202 -656 377 -685 390 -170 76 -373 83 -540 20 -33 -13 -476 -223 -985
-467 l-925 -445 -5 473 -5 472 -250 -241 c-137 -132 -359 -346 -493 -475
l-242 -235 2 1824 3 1824 27 100 c66 238 209 453 397 596 86 66 265 153 366
179 141 36 254 45 390 30z"/>
<path d="M6958 6133 c-14 -2 -244 -121 -510 -265 -266 -143 -521 -277 -568
-298 -505 -223 -1101 -221 -1612 5 -53 24 -288 154 -523 290 -354 205 -434
247 -475 252 -72 8 -135 -13 -186 -61 -76 -74 -74 -44 -74 -936 0 -892 -2
-862 74 -936 51 -48 114 -69 186 -61 41 5 116 44 437 229 214 122 434 246 490
274 517 262 1177 273 1706 30 40 -18 287 -148 549 -288 282 -151 493 -258 516
-262 86 -13 190 43 235 128 l22 41 0 845 0 845 -22 41 c-30 57 -83 100 -145
119 -28 8 -56 14 -62 14 -6 -1 -23 -4 -38 -6z"/>
</g>
</svg>
